<?xml version="1.0" standalone="no"?><!DOCTYPE svg PUBLIC "-//W3C//DTD SVG 1.1//EN" "http://www.w3.org/Graphics/SVG/1.1/DTD/svg11.dtd">
<svg x="0.0000mm" y="0.0000mm" width="13.2290mm" height="13.2290mm" viewBox="0.0000 0.0000 13.2290 13.2290" version="1.1" xmlns="http://www.w3.org/2000/svg" shape-rendering="crispEdges">
<title>TBarCode - 11.7.4.15765</title>
<desc>BarCode licensed to MEM:TEC-IT Datenverarbeitung GmbH Internal License</desc>
<g fill="rgb(100%,100%,100%)">
</g>
<g fill="rgb(12%,12%,12%)">
<rect x="0.0000" y="0.0000" width="13.2292" height="13.2292" />
</g>
<g fill="rgb(100%,100%,100%)">
</g>
<g fill="rgb(100%,100%,100%)">
<rect x="0.5292" y="0.5292" width="0.5292" height="0.5292" />
<rect x="1.0583" y="0.5292" width="0.5292" height="0.5292" />
<rect x="1.5875" y="0.5292" width="0.5292" height="0.5292" />
<rect x="2.6458" y="0.5292" width="0.5292" height="0.5292" />
<rect x="3.1750" y="0.5292" width="0.5292" height="0.5292" />
<rect x="3.7042" y="0.5292" width="0.5292" height="0.5292" />
<rect x="5.2917" y="0.5292" width="0.5292" height="0.5292" />
<rect x="5.8208" y="0.5292" width="0.5292" height="0.5292" />
<rect x="7.9375" y="0.5292" width="0.5292" height="0.5292" />
<rect x="8.4667" y="0.5292" width="0.5292" height="0.5292" />
<rect x="8.9958" y="0.5292" width="0.5292" height="0.5292" />
<rect x="10.5833" y="0.5292" width="0.5292" height="0.5292" />
<rect x="11.1125" y="0.5292" width="0.5292" height="0.5292" />
<rect x="11.6417" y="0.5292" width="0.5292" height="0.5292" />
<rect x="12.1708" y="0.5292" width="0.5292" height="0.5292" />
</g>
<g fill="rgb(100%,100%,100%)">
<rect x="0.5292" y="1.0583" width="0.5292" height="0.5292" />
<rect x="1.5875" y="1.0583" width="0.5292" height="0.5292" />
<rect x="2.1167" y="1.0583" width="0.5292" height="0.5292" />
<rect x="3.7042" y="1.0583" width="0.5292" height="0.5292" />
<rect x="4.7625" y="1.0583" width="0.5292" height="0.5292" />
<rect x="5.2917" y="1.0583" width="0.5292" height="0.5292" />
<rect x="6.8792" y="1.0583" width="0.5292" height="0.5292" />
<rect x="7.4083" y="1.0583" width="0.5292" height="0.5292" />
<rect x="7.9375" y="1.0583" width="0.5292" height="0.5292" />
<rect x="8.4667" y="1.0583" width="0.5292" height="0.5292" />
<rect x="8.9958" y="1.0583" width="0.5292" height="0.5292" />
<rect x="9.5250" y="1.0583" width="0.5292" height="0.5292" />
<rect x="11.1125" y="1.0583" width="0.5292" height="0.5292" />
<rect x="12.1708" y="1.0583" width="0.5292" height="0.5292" />
</g>
<g fill="rgb(100%,100%,100%)">
<rect x="2.1167" y="1.5875" width="0.5292" height="0.5292" />
<rect x="2.6458" y="1.5875" width="0.5292" height="0.5292" />
<rect x="3.7042" y="1.5875" width="0.5292" height="0.5292" />
<rect x="4.7625" y="1.5875" width="0.5292" height="0.5292" />
<rect x="5.2917" y="1.5875" width="0.5292" height="0.5292" />
<rect x="5.8208" y="1.5875" width="0.5292" height="0.5292" />
<rect x="6.8792" y="1.5875" width="0.5292" height="0.5292" />
<rect x="7.4083" y="1.5875" width="0.5292" height="0.5292" />
<rect x="7.9375" y="1.5875" width="0.5292" height="0.5292" />
<rect x="8.4667" y="1.5875" width="0.5292" height="0.5292" />
<rect x="10.0542" y="1.5875" width="0.5292" height="0.5292" />
<rect x="11.1125" y="1.5875" width="0.5292" height="0.5292" />
<rect x="12.1708" y="1.5875" width="0.5292" height="0.5292" />
</g>
<g fill="rgb(100%,100%,100%)">
<rect x="1.0583" y="2.1167" width="0.5292" height="0.5292" />
<rect x="1.5875" y="2.1167" width="0.5292" height="0.5292" />
<rect x="2.1167" y="2.1167" width="0.5292" height="0.5292" />
<rect x="3.1750" y="2.1167" width="0.5292" height="0.5292" />
<rect x="3.7042" y="2.1167" width="0.5292" height="0.5292" />
<rect x="4.7625" y="2.1167" width="0.5292" height="0.5292" />
<rect x="5.2917" y="2.1167" width="0.5292" height="0.5292" />
<rect x="6.8792" y="2.1167" width="0.5292" height="0.5292" />
<rect x="7.4083" y="2.1167" width="0.5292" height="0.5292" />
<rect x="9.5250" y="2.1167" width="0.5292" height="0.5292" />
<rect x="10.0542" y="2.1167" width="0.5292" height="0.5292" />
<rect x="10.5833" y="2.1167" width="0.5292" height="0.5292" />
</g>
<g fill="rgb(100%,100%,100%)">
<rect x="0.5292" y="2.6458" width="0.5292" height="0.5292" />
<rect x="2.6458" y="2.6458" width="0.5292" height="0.5292" />
<rect x="3.1750" y="2.6458" width="0.5292" height="0.5292" />
<rect x="3.7042" y="2.6458" width="0.5292" height="0.5292" />
<rect x="4.7625" y="2.6458" width="0.5292" height="0.5292" />
<rect x="6.3500" y="2.6458" width="0.5292" height="0.5292" />
<rect x="6.8792" y="2.6458" width="0.5292" height="0.5292" />
<rect x="7.4083" y="2.6458" width="0.5292" height="0.5292" />
<rect x="10.0542" y="2.6458" width="0.5292" height="0.5292" />
<rect x="10.5833" y="2.6458" width="0.5292" height="0.5292" />
<rect x="11.1125" y="2.6458" width="0.5292" height="0.5292" />
<rect x="11.6417" y="2.6458" width="0.5292" height="0.5292" />
<rect x="12.1708" y="2.6458" width="0.5292" height="0.5292" />
</g>
<g fill="rgb(100%,100%,100%)">
<rect x="3.1750" y="3.1750" width="0.5292" height="0.5292" />
<rect x="4.2333" y="3.1750" width="0.5292" height="0.5292" />
<rect x="4.7625" y="3.1750" width="0.5292" height="0.5292" />
<rect x="6.3500" y="3.1750" width="0.5292" height="0.5292" />
<rect x="6.8792" y="3.1750" width="0.5292" height="0.5292" />
<rect x="7.4083" y="3.1750" width="0.5292" height="0.5292" />
<rect x="8.4667" y="3.1750" width="0.5292" height="0.5292" />
<rect x="9.5250" y="3.1750" width="0.5292" height="0.5292" />
<rect x="10.0542" y="3.1750" width="0.5292" height="0.5292" />
<rect x="10.5833" y="3.1750" width="0.5292" height="0.5292" />
<rect x="11.6417" y="3.1750" width="0.5292" height="0.5292" />
</g>
<g fill="rgb(100%,100%,100%)">
<rect x="0.5292" y="3.7042" width="0.5292" height="0.5292" />
<rect x="1.0583" y="3.7042" width="0.5292" height="0.5292" />
<rect x="2.1167" y="3.7042" width="0.5292" height="0.5292" />
<rect x="3.7042" y="3.7042" width="0.5292" height="0.5292" />
<rect x="4.2333" y="3.7042" width="0.5292" height="0.5292" />
<rect x="4.7625" y="3.7042" width="0.5292" height="0.5292" />
<rect x="5.8208" y="3.7042" width="0.5292" height="0.5292" />
<rect x="7.9375" y="3.7042" width="0.5292" height="0.5292" />
<rect x="8.9958" y="3.7042" width="0.5292" height="0.5292" />
<rect x="9.5250" y="3.7042" width="0.5292" height="0.5292" />
<rect x="10.5833" y="3.7042" width="0.5292" height="0.5292" />
<rect x="11.6417" y="3.7042" width="0.5292" height="0.5292" />
<rect x="12.1708" y="3.7042" width="0.5292" height="0.5292" />
</g>
<g fill="rgb(100%,100%,100%)">
<rect x="1.0583" y="4.2333" width="0.5292" height="0.5292" />
<rect x="3.1750" y="4.2333" width="0.5292" height="0.5292" />
<rect x="3.7042" y="4.2333" width="0.5292" height="0.5292" />
<rect x="4.2333" y="4.2333" width="0.5292" height="0.5292" />
<rect x="4.7625" y="4.2333" width="0.5292" height="0.5292" />
<rect x="5.2917" y="4.2333" width="0.5292" height="0.5292" />
<rect x="5.8208" y="4.2333" width="0.5292" height="0.5292" />
<rect x="6.3500" y="4.2333" width="0.5292" height="0.5292" />
<rect x="6.8792" y="4.2333" width="0.5292" height="0.5292" />
<rect x="7.4083" y="4.2333" width="0.5292" height="0.5292" />
<rect x="7.9375" y="4.2333" width="0.5292" height="0.5292" />
<rect x="8.4667" y="4.2333" width="0.5292" height="0.5292" />
<rect x="8.9958" y="4.2333" width="0.5292" height="0.5292" />
<rect x="9.5250" y="4.2333" width="0.5292" height="0.5292" />
<rect x="10.0542" y="4.2333" width="0.5292" height="0.5292" />
<rect x="11.6417" y="4.2333" width="0.5292" height="0.5292" />
</g>
<g fill="rgb(100%,100%,100%)">
<rect x="0.5292" y="4.7625" width="0.5292" height="0.5292" />
<rect x="1.0583" y="4.7625" width="0.5292" height="0.5292" />
<rect x="3.1750" y="4.7625" width="0.5292" height="0.5292" />
<rect x="3.7042" y="4.7625" width="0.5292" height="0.5292" />
<rect x="4.2333" y="4.7625" width="0.5292" height="0.5292" />
<rect x="8.4667" y="4.7625" width="0.5292" height="0.5292" />
<rect x="8.9958" y="4.7625" width="0.5292" height="0.5292" />
<rect x="10.5833" y="4.7625" width="0.5292" height="0.5292" />
<rect x="12.1708" y="4.7625" width="0.5292" height="0.5292" />
</g>
<g fill="rgb(100%,100%,100%)">
<rect x="0.5292" y="5.2917" width="0.5292" height="0.5292" />
<rect x="1.5875" y="5.2917" width="0.5292" height="0.5292" />
<rect x="2.6458" y="5.2917" width="0.5292" height="0.5292" />
<rect x="3.1750" y="5.2917" width="0.5292" height="0.5292" />
<rect x="4.2333" y="5.2917" width="0.5292" height="0.5292" />
<rect x="5.2917" y="5.2917" width="0.5292" height="0.5292" />
<rect x="5.8208" y="5.2917" width="0.5292" height="0.5292" />
<rect x="6.3500" y="5.2917" width="0.5292" height="0.5292" />
<rect x="6.8792" y="5.2917" width="0.5292" height="0.5292" />
<rect x="7.4083" y="5.2917" width="0.5292" height="0.5292" />
<rect x="8.4667" y="5.2917" width="0.5292" height="0.5292" />
<rect x="9.5250" y="5.2917" width="0.5292" height="0.5292" />
<rect x="10.0542" y="5.2917" width="0.5292" height="0.5292" />
<rect x="10.5833" y="5.2917" width="0.5292" height="0.5292" />
<rect x="11.6417" y="5.2917" width="0.5292" height="0.5292" />
<rect x="12.1708" y="5.2917" width="0.5292" height="0.5292" />
</g>
<g fill="rgb(100%,100%,100%)">
<rect x="0.5292" y="5.8208" width="0.5292" height="0.5292" />
<rect x="4.2333" y="5.8208" width="0.5292" height="0.5292" />
<rect x="5.2917" y="5.8208" width="0.5292" height="0.5292" />
<rect x="7.4083" y="5.8208" width="0.5292" height="0.5292" />
<rect x="8.4667" y="5.8208" width="0.5292" height="0.5292" />
<rect x="8.9958" y="5.8208" width="0.5292" height="0.5292" />
<rect x="10.0542" y="5.8208" width="0.5292" height="0.5292" />
<rect x="11.6417" y="5.8208" width="0.5292" height="0.5292" />
<rect x="12.1708" y="5.8208" width="0.5292" height="0.5292" />
</g>
<g fill="rgb(100%,100%,100%)">
<rect x="0.5292" y="6.3500" width="0.5292" height="0.5292" />
<rect x="2.1167" y="6.3500" width="0.5292" height="0.5292" />
<rect x="2.6458" y="6.3500" width="0.5292" height="0.5292" />
<rect x="3.1750" y="6.3500" width="0.5292" height="0.5292" />
<rect x="4.2333" y="6.3500" width="0.5292" height="0.5292" />
<rect x="5.2917" y="6.3500" width="0.5292" height="0.5292" />
<rect x="6.3500" y="6.3500" width="0.5292" height="0.5292" />
<rect x="7.4083" y="6.3500" width="0.5292" height="0.5292" />
<rect x="8.4667" y="6.3500" width="0.5292" height="0.5292" />
<rect x="9.5250" y="6.3500" width="0.5292" height="0.5292" />
<rect x="11.1125" y="6.3500" width="0.5292" height="0.5292" />
<rect x="12.1708" y="6.3500" width="0.5292" height="0.5292" />
</g>
<g fill="rgb(100%,100%,100%)">
<rect x="0.5292" y="6.8792" width="0.5292" height="0.5292" />
<rect x="1.0583" y="6.8792" width="0.5292" height="0.5292" />
<rect x="1.5875" y="6.8792" width="0.5292" height="0.5292" />
<rect x="2.6458" y="6.8792" width="0.5292" height="0.5292" />
<rect x="3.1750" y="6.8792" width="0.5292" height="0.5292" />
<rect x="4.2333" y="6.8792" width="0.5292" height="0.5292" />
<rect x="5.2917" y="6.8792" width="0.5292" height="0.5292" />
<rect x="7.4083" y="6.8792" width="0.5292" height="0.5292" />
<rect x="8.4667" y="6.8792" width="0.5292" height="0.5292" />
<rect x="8.9958" y="6.8792" width="0.5292" height="0.5292" />
<rect x="9.5250" y="6.8792" width="0.5292" height="0.5292" />
<rect x="10.0542" y="6.8792" width="0.5292" height="0.5292" />
<rect x="10.5833" y="6.8792" width="0.5292" height="0.5292" />
<rect x="11.1125" y="6.8792" width="0.5292" height="0.5292" />
</g>
<g fill="rgb(100%,100%,100%)">
<rect x="0.5292" y="7.4083" width="0.5292" height="0.5292" />
<rect x="3.1750" y="7.4083" width="0.5292" height="0.5292" />
<rect x="4.2333" y="7.4083" width="0.5292" height="0.5292" />
<rect x="5.2917" y="7.4083" width="0.5292" height="0.5292" />
<rect x="5.8208" y="7.4083" width="0.5292" height="0.5292" />
<rect x="6.3500" y="7.4083" width="0.5292" height="0.5292" />
<rect x="6.8792" y="7.4083" width="0.5292" height="0.5292" />
<rect x="7.4083" y="7.4083" width="0.5292" height="0.5292" />
<rect x="8.4667" y="7.4083" width="0.5292" height="0.5292" />
<rect x="8.9958" y="7.4083" width="0.5292" height="0.5292" />
<rect x="11.1125" y="7.4083" width="0.5292" height="0.5292" />
<rect x="11.6417" y="7.4083" width="0.5292" height="0.5292" />
<rect x="12.1708" y="7.4083" width="0.5292" height="0.5292" />
</g>
<g fill="rgb(100%,100%,100%)">
<rect x="0.5292" y="7.9375" width="0.5292" height="0.5292" />
<rect x="1.0583" y="7.9375" width="0.5292" height="0.5292" />
<rect x="1.5875" y="7.9375" width="0.5292" height="0.5292" />
<rect x="3.1750" y="7.9375" width="0.5292" height="0.5292" />
<rect x="4.2333" y="7.9375" width="0.5292" height="0.5292" />
<rect x="8.4667" y="7.9375" width="0.5292" height="0.5292" />
<rect x="8.9958" y="7.9375" width="0.5292" height="0.5292" />
<rect x="10.5833" y="7.9375" width="0.5292" height="0.5292" />
<rect x="11.1125" y="7.9375" width="0.5292" height="0.5292" />
<rect x="11.6417" y="7.9375" width="0.5292" height="0.5292" />
</g>
<g fill="rgb(100%,100%,100%)">
<rect x="0.5292" y="8.4667" width="0.5292" height="0.5292" />
<rect x="3.1750" y="8.4667" width="0.5292" height="0.5292" />
<rect x="4.2333" y="8.4667" width="0.5292" height="0.5292" />
<rect x="4.7625" y="8.4667" width="0.5292" height="0.5292" />
<rect x="5.2917" y="8.4667" width="0.5292" height="0.5292" />
<rect x="5.8208" y="8.4667" width="0.5292" height="0.5292" />
<rect x="6.3500" y="8.4667" width="0.5292" height="0.5292" />
<rect x="6.8792" y="8.4667" width="0.5292" height="0.5292" />
<rect x="7.4083" y="8.4667" width="0.5292" height="0.5292" />
<rect x="7.9375" y="8.4667" width="0.5292" height="0.5292" />
<rect x="8.4667" y="8.4667" width="0.5292" height="0.5292" />
<rect x="8.9958" y="8.4667" width="0.5292" height="0.5292" />
<rect x="9.5250" y="8.4667" width="0.5292" height="0.5292" />
<rect x="10.0542" y="8.4667" width="0.5292" height="0.5292" />
<rect x="10.5833" y="8.4667" width="0.5292" height="0.5292" />
<rect x="11.1125" y="8.4667" width="0.5292" height="0.5292" />
</g>
<g fill="rgb(100%,100%,100%)">
<rect x="2.1167" y="8.9958" width="0.5292" height="0.5292" />
<rect x="2.6458" y="8.9958" width="0.5292" height="0.5292" />
<rect x="4.7625" y="8.9958" width="0.5292" height="0.5292" />
<rect x="5.2917" y="8.9958" width="0.5292" height="0.5292" />
<rect x="7.4083" y="8.9958" width="0.5292" height="0.5292" />
<rect x="9.5250" y="8.9958" width="0.5292" height="0.5292" />
<rect x="10.0542" y="8.9958" width="0.5292" height="0.5292" />
<rect x="12.1708" y="8.9958" width="0.5292" height="0.5292" />
</g>
<g fill="rgb(100%,100%,100%)">
<rect x="1.0583" y="9.5250" width="0.5292" height="0.5292" />
<rect x="1.5875" y="9.5250" width="0.5292" height="0.5292" />
<rect x="2.1167" y="9.5250" width="0.5292" height="0.5292" />
<rect x="4.2333" y="9.5250" width="0.5292" height="0.5292" />
<rect x="5.2917" y="9.5250" width="0.5292" height="0.5292" />
<rect x="5.8208" y="9.5250" width="0.5292" height="0.5292" />
<rect x="6.8792" y="9.5250" width="0.5292" height="0.5292" />
<rect x="7.4083" y="9.5250" width="0.5292" height="0.5292" />
<rect x="7.9375" y="9.5250" width="0.5292" height="0.5292" />
<rect x="8.4667" y="9.5250" width="0.5292" height="0.5292" />
<rect x="8.9958" y="9.5250" width="0.5292" height="0.5292" />
<rect x="9.5250" y="9.5250" width="0.5292" height="0.5292" />
<rect x="10.0542" y="9.5250" width="0.5292" height="0.5292" />
<rect x="11.1125" y="9.5250" width="0.5292" height="0.5292" />
<rect x="11.6417" y="9.5250" width="0.5292" height="0.5292" />
<rect x="12.1708" y="9.5250" width="0.5292" height="0.5292" />
</g>
<g fill="rgb(100%,100%,100%)">
<rect x="1.0583" y="10.0542" width="0.5292" height="0.5292" />
<rect x="1.5875" y="10.0542" width="0.5292" height="0.5292" />
<rect x="2.1167" y="10.0542" width="0.5292" height="0.5292" />
<rect x="2.6458" y="10.0542" width="0.5292" height="0.5292" />
<rect x="3.1750" y="10.0542" width="0.5292" height="0.5292" />
<rect x="4.2333" y="10.0542" width="0.5292" height="0.5292" />
<rect x="5.8208" y="10.0542" width="0.5292" height="0.5292" />
<rect x="6.3500" y="10.0542" width="0.5292" height="0.5292" />
<rect x="7.4083" y="10.0542" width="0.5292" height="0.5292" />
<rect x="8.9958" y="10.0542" width="0.5292" height="0.5292" />
<rect x="10.0542" y="10.0542" width="0.5292" height="0.5292" />
<rect x="10.5833" y="10.0542" width="0.5292" height="0.5292" />
<rect x="11.1125" y="10.0542" width="0.5292" height="0.5292" />
<rect x="12.1708" y="10.0542" width="0.5292" height="0.5292" />
</g>
<g fill="rgb(100%,100%,100%)">
<rect x="0.5292" y="10.5833" width="0.5292" height="0.5292" />
<rect x="1.0583" y="10.5833" width="0.5292" height="0.5292" />
<rect x="2.1167" y="10.5833" width="0.5292" height="0.5292" />
<rect x="2.6458" y="10.5833" width="0.5292" height="0.5292" />
<rect x="3.1750" y="10.5833" width="0.5292" height="0.5292" />
<rect x="4.2333" y="10.5833" width="0.5292" height="0.5292" />
<rect x="4.7625" y="10.5833" width="0.5292" height="0.5292" />
<rect x="5.2917" y="10.5833" width="0.5292" height="0.5292" />
<rect x="6.3500" y="10.5833" width="0.5292" height="0.5292" />
<rect x="7.4083" y="10.5833" width="0.5292" height="0.5292" />
<rect x="8.9958" y="10.5833" width="0.5292" height="0.5292" />
<rect x="10.5833" y="10.5833" width="0.5292" height="0.5292" />
<rect x="11.6417" y="10.5833" width="0.5292" height="0.5292" />
<rect x="12.1708" y="10.5833" width="0.5292" height="0.5292" />
</g>
<g fill="rgb(100%,100%,100%)">
<rect x="0.5292" y="11.1125" width="0.5292" height="0.5292" />
<rect x="1.0583" y="11.1125" width="0.5292" height="0.5292" />
<rect x="1.5875" y="11.1125" width="0.5292" height="0.5292" />
<rect x="2.6458" y="11.1125" width="0.5292" height="0.5292" />
<rect x="5.8208" y="11.1125" width="0.5292" height="0.5292" />
<rect x="6.3500" y="11.1125" width="0.5292" height="0.5292" />
<rect x="6.8792" y="11.1125" width="0.5292" height="0.5292" />
<rect x="7.4083" y="11.1125" width="0.5292" height="0.5292" />
<rect x="7.9375" y="11.1125" width="0.5292" height="0.5292" />
<rect x="10.5833" y="11.1125" width="0.5292" height="0.5292" />
<rect x="11.1125" y="11.1125" width="0.5292" height="0.5292" />
<rect x="11.6417" y="11.1125" width="0.5292" height="0.5292" />
<rect x="12.1708" y="11.1125" width="0.5292" height="0.5292" />
</g>
<g fill="rgb(100%,100%,100%)">
<rect x="0.5292" y="11.6417" width="0.5292" height="0.5292" />
<rect x="1.0583" y="11.6417" width="0.5292" height="0.5292" />
<rect x="1.5875" y="11.6417" width="0.5292" height="0.5292" />
<rect x="3.7042" y="11.6417" width="0.5292" height="0.5292" />
<rect x="4.2333" y="11.6417" width="0.5292" height="0.5292" />
<rect x="4.7625" y="11.6417" width="0.5292" height="0.5292" />
<rect x="5.2917" y="11.6417" width="0.5292" height="0.5292" />
<rect x="5.8208" y="11.6417" width="0.5292" height="0.5292" />
<rect x="6.3500" y="11.6417" width="0.5292" height="0.5292" />
<rect x="7.9375" y="11.6417" width="0.5292" height="0.5292" />
<rect x="8.4667" y="11.6417" width="0.5292" height="0.5292" />
<rect x="8.9958" y="11.6417" width="0.5292" height="0.5292" />
<rect x="10.0542" y="11.6417" width="0.5292" height="0.5292" />
<rect x="11.1125" y="11.6417" width="0.5292" height="0.5292" />
<rect x="11.6417" y="11.6417" width="0.5292" height="0.5292" />
</g>
<g fill="rgb(100%,100%,100%)">
<rect x="2.6458" y="12.1708" width="0.5292" height="0.5292" />
<rect x="3.1750" y="12.1708" width="0.5292" height="0.5292" />
<rect x="5.2917" y="12.1708" width="0.5292" height="0.5292" />
<rect x="6.3500" y="12.1708" width="0.5292" height="0.5292" />
<rect x="7.9375" y="12.1708" width="0.5292" height="0.5292" />
<rect x="8.4667" y="12.1708" width="0.5292" height="0.5292" />
<rect x="8.9958" y="12.1708" width="0.5292" height="0.5292" />
<rect x="9.5250" y="12.1708" width="0.5292" height="0.5292" />
<rect x="10.5833" y="12.1708" width="0.5292" height="0.5292" />
<rect x="11.6417" y="12.1708" width="0.5292" height="0.5292" />
</g>
</svg>
